<svg width="24" height="24" viewBox="0 0 24 24" fill="none" xmlns="http://www.w3.org/2000/svg">
<path d="M16.531 15.6669C18.0653 14.0059 19.0225 11.7818 19.0225 9.33256C19.0225 4.19471 14.8419 0 9.68998 0C4.53807 0 0.357422 4.19471 0.357422 9.33256C0.357422 14.4704 4.53807 18.6651 9.68998 18.6651C11.7874 18.6651 13.7158 17.9754 15.2782 16.807L22.2178 23.7466C22.3867 23.9155 22.5979 24 22.809 24C23.0202 24 23.2454 23.9155 23.4002 23.7466C23.724 23.4229 23.724 22.888 23.4002 22.5502L16.531 15.6669ZM2.04657 9.33256C2.04657 5.12374 5.4671 1.68915 9.68998 1.68915C13.8988 1.68915 17.3334 5.10968 17.3334 9.33256C17.3334 13.5554 13.9129 16.976 9.68998 16.976C5.4671 16.976 2.04657 13.5414 2.04657 9.33256Z" fill="#0051A3"/>
</svg>
