<svg width="181" height="47" viewBox="0 0 181 47" fill="none" xmlns="http://www.w3.org/2000/svg">
<path fill-rule="evenodd" clip-rule="evenodd" d="M26.6737 46.7547L33.9375 34.126H29.0553L24.2524 42.5451L26.6737 46.7547ZM36.3191 29.9164H31.4368L45.8851 4.6999H41.0425L21.9502 38.5808L14.4879 25.7069L26.5546 4.65903L7.02566 4.61816L12.1064 12.9964L14.5276 8.78686H19.3702L12.1064 21.4564L0 0.490334C11.2331 0.449465 22.6647 0.326856 33.8184 0.490334L19.3702 25.666L21.7518 29.9573L38.661 0.531204H53.2283L36.3191 29.9164Z" fill="#0051A3"/>
<path fill-rule="evenodd" clip-rule="evenodd" d="M73.194 26.1155C73.194 22.5598 71.4475 20.6798 68.4308 19.1268L66.0889 17.9415C64.3027 17.0424 63.2707 16.5929 63.2707 15.2033C63.2707 14.0181 64.0646 13.2415 66.5652 13.2415C69.185 13.2415 70.9712 14.6311 72.281 16.5111C72.281 16.5111 72.2016 15.3259 72.2016 13.1598C72.2016 11.0755 72.281 10.2172 72.281 10.2172C72.281 10.2172 70.1376 9.23633 66.0095 9.23633C60.4128 9.23633 57.0786 11.2798 57.0786 16.3068C57.0786 19.6581 58.9442 21.5789 61.683 22.9685L64.3027 24.3581C65.9301 25.1755 67.0019 25.6659 67.0019 27.1781C67.0019 28.8537 65.6126 29.4668 63.2707 29.4668C59.9365 29.4668 58.2694 27.7094 57.1977 26.1155C57.1977 26.1155 57.2771 27.4233 57.2771 29.6711C57.2771 31.7146 57.1977 32.4911 57.1977 32.4911C57.1977 32.4911 59.3411 33.472 63.8264 33.472C68.9468 33.5129 73.194 32.0007 73.194 26.1155Z" fill="#161D3D"/>
<path fill-rule="evenodd" clip-rule="evenodd" d="M102.646 33.2676L102.329 32.6955C101.614 31.3468 101.495 31.2242 101.495 21.5381C101.495 11.525 101.654 11.2798 102.329 10.0128L102.646 9.44067C102.646 9.44067 101.217 9.52241 97.7639 9.52241C94.4694 9.52241 93.1595 9.44067 93.1595 9.44067L89.5871 17.2468C89.1902 18.1459 88.9917 18.6363 88.9917 18.7589C88.952 18.6772 88.833 18.1459 88.436 17.2468L84.8637 9.44067C84.8637 9.44067 83.7126 9.52241 80.4974 9.52241C77.0045 9.52241 75.6946 9.44067 75.6946 9.44067L76.0121 10.0128C76.7266 11.3615 76.8457 11.4842 76.8457 21.1702C76.8457 31.1833 76.6869 31.4285 76.0121 32.6955L75.6946 33.2676C75.6946 33.2676 77.0044 33.1859 79.2669 33.1859C81.4501 33.1859 82.6409 33.2676 82.6409 33.2676L82.3233 32.6955C81.6088 31.3468 81.4898 31.2242 81.4898 21.5381V16.0615C81.5295 16.225 82.0852 17.9824 83.2759 20.6389L88.1185 31.265L92.961 20.6389C94.0724 18.1459 94.7075 16.1842 94.7472 16.0615V21.2111C94.7472 31.0198 94.5091 31.5511 93.9137 32.7363L93.5961 33.3085C93.5961 33.3085 94.906 33.2268 98.1211 33.2268C101.416 33.2268 102.646 33.2676 102.646 33.2676Z" fill="#161D3D"/>
<path fill-rule="evenodd" clip-rule="evenodd" d="M114.594 33.2676L114.276 32.6955C113.562 31.3468 113.442 31.2241 113.442 21.5381C113.442 11.525 113.601 11.2798 114.276 10.0128L114.594 9.44067C114.594 9.44067 113.482 9.52241 110.029 9.52241C106.774 9.52241 105.504 9.44067 105.504 9.44067L105.821 10.0128C106.536 11.3615 106.655 11.4842 106.655 21.1702C106.655 31.1833 106.496 31.4285 105.821 32.6955L105.504 33.2676C105.504 33.3494 106.853 33.2676 110.069 33.2676C113.204 33.2268 114.594 33.2676 114.594 33.2676Z" fill="#161D3D"/>
<path fill-rule="evenodd" clip-rule="evenodd" d="M135.909 12.179C135.909 10.3399 135.948 9.52246 135.948 9.52246H116.38C116.38 9.52246 116.419 10.3399 116.419 12.179C116.419 14.059 116.34 15.0807 116.34 15.1216C116.38 15.0399 116.658 14.7129 117.491 14.1816C118.285 13.732 119.516 13.3642 121.064 13.3642H122.731V21.252C122.731 31.2242 122.572 31.4694 121.897 32.7364L121.58 33.3085C121.58 33.3085 122.929 33.2268 126.144 33.2268C129.32 33.2268 130.669 33.3085 130.669 33.3085L130.352 32.7364C129.637 31.3877 129.518 31.2651 129.518 21.579V13.3233H131.185C132.733 13.3233 133.964 13.6912 134.758 14.1407C135.671 14.7129 135.869 15.0399 135.909 15.0807C135.988 15.0399 135.909 14.059 135.909 12.179Z" fill="#161D3D"/>
<path fill-rule="evenodd" clip-rule="evenodd" d="M154.326 26.6469C153.096 28.4452 152.58 29.426 148.452 29.426H145.634V23.2956H147.975C149.523 23.2956 150.833 23.4591 151.627 23.9495C152.54 24.5217 152.778 24.8078 152.818 24.8486C152.818 24.7669 152.699 23.7452 152.699 21.4156C152.699 18.8817 152.818 17.9826 152.818 17.9417C152.739 18.0234 152.5 18.3095 151.627 18.8C150.833 19.2495 149.523 19.413 147.975 19.413H145.634V13.4052H148.809C150.357 13.4052 151.667 13.6504 152.461 14.1408C153.374 14.713 153.572 14.9991 153.612 15.0399C153.612 14.9582 153.532 14.0591 153.532 12.1791C153.532 10.3399 153.572 9.52256 153.572 9.52256H140.275C138.489 9.52256 137.735 9.48169 137.735 9.48169L138.052 10.0539C138.767 11.4026 138.886 11.5252 138.886 21.2113C138.886 31.2243 138.727 31.5104 138.052 32.7365L137.735 33.3086C137.735 33.3086 138.489 33.2678 140.275 33.2678H153.85L153.929 31.8782C154.168 28.0365 154.326 26.6469 154.326 26.6469Z" fill="#161D3D"/>
<path fill-rule="evenodd" clip-rule="evenodd" d="M180.762 9.48154C180.762 9.48154 179.651 9.56328 175.919 9.56328C172.387 9.56328 171.196 9.48154 171.196 9.48154C171.712 9.84937 171.91 10.3398 171.91 10.8302C171.91 11.8111 171.315 12.7102 169.807 14.7128L164.726 21.4563C164.726 11.6068 164.924 11.2389 165.56 10.0128L165.877 9.44067C165.877 9.44067 164.766 9.52241 161.312 9.52241C158.058 9.52241 156.787 9.44067 156.787 9.44067L157.105 10.0128C157.819 11.3615 157.938 11.4842 157.938 21.1702C157.938 31.1833 157.78 31.4285 157.105 32.6955L156.787 33.2676C156.787 33.3494 158.137 33.2676 161.352 33.2676C164.527 33.1859 165.877 33.2676 165.877 33.2676L165.56 32.6955C164.845 31.3468 164.726 30.8972 164.726 21.7424L171.791 33.2268H175.959C179.73 33.2268 180.643 33.2676 180.643 33.2676C179.73 32.7772 178.936 32.0007 176.038 27.5459L171.077 19.985L175.522 14.7537C178.579 11.1572 179.968 9.97198 180.762 9.48154Z" fill="#161D3D"/>
</svg>
