<svg width="181" height="47" viewBox="0 0 181 47" fill="none" xmlns="http://www.w3.org/2000/svg">
<path fill-rule="evenodd" clip-rule="evenodd" d="M26.6737 46.7547L33.9375 34.126H29.0553L24.2524 42.5451L26.6737 46.7547ZM36.3191 29.9164H31.4368L45.8851 4.6999H41.0425L21.9502 38.5808L14.4879 25.7069L26.5546 4.65903L7.02566 4.61816L12.1064 12.9964L14.5276 8.78686H19.3702L12.1064 21.4564L0 0.490334C11.2331 0.449465 22.6647 0.326856 33.8184 0.490334L19.3702 25.666L21.7518 29.9573L38.661 0.531204H53.2283L36.3191 29.9164Z" fill="#0051A3"/>
<path fill-rule="evenodd" clip-rule="evenodd" d="M73.1935 26.1155C73.1935 22.5598 71.447 20.6798 68.4303 19.1268L66.0884 17.9415C64.3022 17.0424 63.2702 16.5929 63.2702 15.2033C63.2702 14.0181 64.0641 13.2415 66.5647 13.2415C69.1845 13.2415 70.9707 14.6311 72.2805 16.5111C72.2805 16.5111 72.2011 15.3259 72.2011 13.1598C72.2011 11.0755 72.2805 10.2172 72.2805 10.2172C72.2805 10.2172 70.1371 9.23633 66.009 9.23633C60.4123 9.23633 57.0781 11.2798 57.0781 16.3068C57.0781 19.6581 58.9437 21.5789 61.6825 22.9685L64.3022 24.3581C65.9297 25.1755 67.0014 25.6659 67.0014 27.1781C67.0014 28.8537 65.6121 29.4668 63.2702 29.4668C59.936 29.4668 58.2689 27.7094 57.1972 26.1155C57.1972 26.1155 57.2766 27.4233 57.2766 29.6711C57.2766 31.7146 57.1972 32.4911 57.1972 32.4911C57.1972 32.4911 59.3406 33.472 63.8259 33.472C68.9463 33.5129 73.1935 32.0007 73.1935 26.1155Z" fill="white"/>
<path fill-rule="evenodd" clip-rule="evenodd" d="M102.646 33.2676L102.328 32.6955C101.614 31.3468 101.495 31.2242 101.495 21.5381C101.495 11.525 101.654 11.2798 102.328 10.0128L102.646 9.44067C102.646 9.44067 101.217 9.52241 97.7636 9.52241C94.4691 9.52241 93.1592 9.44067 93.1592 9.44067L89.5869 17.2468C89.1899 18.1459 88.9915 18.6363 88.9915 18.7589C88.9518 18.6772 88.8327 18.1459 88.4358 17.2468L84.8634 9.44067C84.8634 9.44067 83.7123 9.52241 80.4972 9.52241C77.0042 9.52241 75.6943 9.44067 75.6943 9.44067L76.0119 10.0128C76.7264 11.3615 76.8454 11.4842 76.8454 21.1702C76.8454 31.1833 76.6867 31.4285 76.0119 32.6955L75.6943 33.2676C75.6943 33.2676 77.0042 33.1859 79.2667 33.1859C81.4498 33.1859 82.6406 33.2676 82.6406 33.2676L82.3231 32.6955C81.6086 31.3468 81.4895 31.2242 81.4895 21.5381V16.0615C81.5292 16.225 82.0849 17.9824 83.2757 20.6389L88.1182 31.265L92.9608 20.6389C94.0722 18.1459 94.7073 16.1842 94.747 16.0615V21.2111C94.747 31.0198 94.5088 31.5511 93.9134 32.7363L93.5959 33.3085C93.5959 33.3085 94.9057 33.2268 98.1209 33.2268C101.415 33.2268 102.646 33.2676 102.646 33.2676Z" fill="white"/>
<path fill-rule="evenodd" clip-rule="evenodd" d="M114.594 33.2676L114.276 32.6955C113.562 31.3468 113.442 31.2241 113.442 21.5381C113.442 11.525 113.601 11.2798 114.276 10.0128L114.594 9.44067C114.594 9.44067 113.482 9.52241 110.029 9.52241C106.774 9.52241 105.504 9.44067 105.504 9.44067L105.821 10.0128C106.536 11.3615 106.655 11.4842 106.655 21.1702C106.655 31.1833 106.496 31.4285 105.821 32.6955L105.504 33.2676C105.504 33.3494 106.853 33.2676 110.069 33.2676C113.204 33.2268 114.594 33.2676 114.594 33.2676Z" fill="white"/>
<path fill-rule="evenodd" clip-rule="evenodd" d="M135.908 12.179C135.908 10.3399 135.948 9.52246 135.948 9.52246H116.38C116.38 9.52246 116.419 10.3399 116.419 12.179C116.419 14.059 116.34 15.0807 116.34 15.1216C116.38 15.0399 116.657 14.7129 117.491 14.1816C118.285 13.732 119.515 13.3642 121.063 13.3642H122.73V21.252C122.73 31.2242 122.572 31.4694 121.897 32.7364L121.579 33.3085C121.579 33.3085 122.929 33.2268 126.144 33.2268C129.319 33.2268 130.669 33.3085 130.669 33.3085L130.351 32.7364C129.637 31.3877 129.518 31.2651 129.518 21.579V13.3233H131.185C132.733 13.3233 133.964 13.6912 134.757 14.1407C135.67 14.7129 135.869 15.0399 135.908 15.0807C135.988 15.0399 135.908 14.059 135.908 12.179Z" fill="white"/>
<path fill-rule="evenodd" clip-rule="evenodd" d="M154.326 26.6469C153.096 28.4452 152.58 29.426 148.451 29.426H145.633V23.2956H147.975C149.523 23.2956 150.833 23.4591 151.627 23.9495C152.54 24.5217 152.778 24.8078 152.818 24.8486C152.818 24.7669 152.699 23.7452 152.699 21.4156C152.699 18.8817 152.818 17.9826 152.818 17.9417C152.738 18.0234 152.5 18.3095 151.627 18.8C150.833 19.2495 149.523 19.413 147.975 19.413H145.633V13.4052H148.809C150.357 13.4052 151.667 13.6504 152.46 14.1408C153.373 14.713 153.572 14.9991 153.612 15.0399C153.612 14.9582 153.532 14.0591 153.532 12.1791C153.532 10.3399 153.572 9.52256 153.572 9.52256H140.275C138.489 9.52256 137.734 9.48169 137.734 9.48169L138.052 10.0539C138.766 11.4026 138.885 11.5252 138.885 21.2113C138.885 31.2243 138.727 31.5104 138.052 32.7365L137.734 33.3086C137.734 33.3086 138.489 33.2678 140.275 33.2678H153.85L153.929 31.8782C154.167 28.0365 154.326 26.6469 154.326 26.6469Z" fill="white"/>
<path fill-rule="evenodd" clip-rule="evenodd" d="M180.762 9.48154C180.762 9.48154 179.65 9.56328 175.919 9.56328C172.386 9.56328 171.196 9.48154 171.196 9.48154C171.712 9.84937 171.91 10.3398 171.91 10.8302C171.91 11.8111 171.315 12.7102 169.806 14.7128L164.726 21.4563C164.726 11.6068 164.924 11.2389 165.559 10.0128L165.877 9.44067C165.877 9.44067 164.765 9.52241 161.312 9.52241C158.057 9.52241 156.787 9.44067 156.787 9.44067L157.105 10.0128C157.819 11.3615 157.938 11.4842 157.938 21.1702C157.938 31.1833 157.779 31.4285 157.105 32.6955L156.787 33.2676C156.787 33.3494 158.137 33.2676 161.352 33.2676C164.527 33.1859 165.877 33.2676 165.877 33.2676L165.559 32.6955C164.845 31.3468 164.726 30.8972 164.726 21.7424L171.791 33.2268H175.959C179.73 33.2268 180.643 33.2676 180.643 33.2676C179.73 32.7772 178.936 32.0007 176.038 27.5459L171.077 19.985L175.522 14.7537C178.579 11.1572 179.968 9.97198 180.762 9.48154Z" fill="white"/>
</svg>
